<?xml version="1.0" encoding="UTF-8" standalone="no"?>
<!-- Generator: Adobe Illustrator 23.0.4, SVG Export Plug-In . SVG Version: 6.00 Build 0)  -->

<svg
   version="1.1"
   id="Ebene_1"
   x="0px"
   y="0px"
   viewBox="0 0 287.10001 67.099997"
   xml:space="preserve"
   sodipodi:docname="mbg-logo-building-only.svg"
   width="287.10001"
   height="67.099998"
   inkscape:version="1.3 (0e150ed6c4, 2023-07-21)"
   xmlns:inkscape="http://www.inkscape.org/namespaces/inkscape"
   xmlns:sodipodi="http://sodipodi.sourceforge.net/DTD/sodipodi-0.dtd"
   xmlns="http://www.w3.org/2000/svg"
   xmlns:svg="http://www.w3.org/2000/svg"><defs
   id="defs4" /><sodipodi:namedview
   id="namedview4"
   pagecolor="#ffffff"
   bordercolor="#000000"
   borderopacity="0.25"
   inkscape:showpageshadow="2"
   inkscape:pageopacity="0.0"
   inkscape:pagecheckerboard="0"
   inkscape:deskcolor="#d1d1d1"
   inkscape:zoom="1.9493791"
   inkscape:cx="246.23225"
   inkscape:cy="55.145765"
   inkscape:window-width="1920"
   inkscape:window-height="1009"
   inkscape:window-x="1912"
   inkscape:window-y="-8"
   inkscape:window-maximized="1"
   inkscape:current-layer="Ebene_1" />&#10;<style
   type="text/css"
   id="style1">&#10;	.st0{fill:#777777;}&#10;</style>&#10;&#10;<path
   class="st0"
   d="M 3,53.1 H 66 V 66.3 H 3 Z m 63.8,0 h 75.6 V 66.3 H 66.8 Z m 76.4,0 h 13.4 v 13.2 h -13.4 z m 14.2,0 h 8.9 v 13.2 h -8.9 z m 9.6,0 h 93.4 V 66.3 H 167 Z m 94.2,0 h 8.9 v 13.2 h -8.9 z m 9.7,0 h 13.3 V 66.3 H 270.9 Z M 3,40.5 H 66 V 52.3 H 3 Z m 154.4,-0.8 h 8.9 v 12.6 h -8.9 z m 9.6,0 h 93.4 V 52.3 H 167 Z m 94.2,0 h 8.9 v 12.6 h -8.9 z m 9.7,0 h 13.3 V 52.3 H 270.9 Z M 157.4,26.5 h 8.9 v 12.3 h -8.9 z m 9.6,0 h 93.4 V 38.8 H 167 Z m 94.2,0 h 8.9 v 12.3 h -8.9 z m 9.7,0 h 13.3 V 38.8 H 270.9 Z M 143.2,14.1 h 13.4 v 38.1 h -13.4 z m 23.8,0 h 93.4 V 25.7 H 167 Z m 103.9,0 h 13.3 v 11.6 h -13.3 z m -113.5,0 v 0 h 8.9 v 0 11.6 h -8.9 z m 103.8,0 v 0 h 8.9 v 0 11.6 h -8.9 z M 220.5,1.8 h 34.7 v 9.8 H 220.5 Z M 219.7,0 v 1.5 0.3 9.8 H 167 166.2 v 1.7 h -8.9 v -1.7 h -0.8 -13.4 -0.8 v 2.5 38.1 H 66.8 V 40.5 38.2 38 H 3 2.2 v 2.5 25.8 H 0 v 0.8 H 287.1 V 66.3 H 285 V 14.1 11.6 h -0.8 -13.3 -0.8 v 1.7 h -8.9 V 11.6 H 260.4 256 V 1.8 1.5 0 Z"
   id="path4"
   style="fill:#000000" />&#10;</svg>
